<svg width="310" height="115" viewBox="0 0 310 115" fill="none" xmlns="http://www.w3.org/2000/svg">
<path d="M1.59963 70.6365C-1.04749 58.6457 -0.560516 46.976 4.20006 35.7921C12.4801 16.34 27.1311 4.29181 47.9853 0.812539C79.7413 -4.48555 108.218 16.7143 113.624 47.2399C119.096 78.1435 98.6052 107.586 67.6984 113.6C66.9595 113.743 66.206 113.81 65.4636 113.937C59.5582 114.95 55.9879 112.364 54.9753 106.399C53.9939 100.618 55.1945 95.0739 56.8346 89.6074C58.8539 82.8768 62.4432 76.9764 66.8299 71.5351C67.2101 71.0634 67.5736 70.5783 68.0056 70.021C66.6784 68.4977 64.5725 68.516 63.1799 67.3115C64.339 66.1451 77.53 60.7265 79.9443 60.5078C78.7629 66.4285 77.6035 72.2393 76.4015 78.2632C74.316 77.087 74.105 74.8455 72.3843 73.5532C65.4738 81.9639 60.6051 91.116 60.3055 102.772C71.4726 97.4384 80.901 90.6647 87.4285 80.4101C97.2459 64.987 97.3077 48.2292 94.059 30.5046C92.82 32.104 91.9495 33.3666 90.9396 34.5057C87.6091 38.2623 83.3738 40.8059 79.055 43.2299C73.1397 46.5501 66.8714 49.2418 61.3488 53.2623C52.2233 59.9057 47.1215 68.7798 46.1363 80.0686C45.3647 88.9109 47.5031 97.1845 50.6346 105.309C51.3237 107.097 52.0468 108.885 52.5468 110.729C53.2571 113.349 52.2593 114.403 49.6156 114.015C34.9337 111.858 22.8409 105.04 13.3108 93.7026C7.66197 86.9821 3.83313 79.3022 1.59963 70.6365ZM21.6637 47.7931C19.3763 50.9774 18.1243 54.5377 18.7403 58.426C20.7005 70.7993 26.149 81.4221 35.201 90.1359C36.9502 91.8198 38.7507 93.4655 41.4124 94.6571C37.372 71.301 45.5545 54.1373 66.6553 43.4011C65.0405 41.7882 63.2976 41.6665 61.7536 41.7512C56.6888 42.0291 53.1764 44.8627 50.7781 49.6125C47.2806 44.2216 42.779 41.1576 36.7205 40.8275C30.6267 40.4954 25.5838 42.6218 21.6637 47.7931ZM34.2247 18.9123C30.0634 19.6851 26.911 22.709 26.4664 26.3543C25.9346 30.7138 28.2195 34.8269 32.0348 36.3784C35.712 37.8737 40.0685 36.7583 42.601 33.5245C44.9115 30.5743 45.3688 27.3353 43.6274 23.9168C41.7355 20.203 38.617 18.6646 34.2247 18.9123ZM58.7591 38.5956C61.4981 39.9738 64.2489 39.6226 66.3172 37.6307C68.1732 35.8432 68.7714 32.9804 67.779 30.6337C66.6663 28.0027 64.2956 26.5393 61.4245 26.7114C58.844 26.8659 56.6672 28.5032 55.8734 30.8865C54.9132 33.7693 55.8173 36.386 58.7591 38.5956Z" fill="white"/>
<path d="M144.914 48.7743L134.241 73.8766C134.01 74.5026 133.648 74.9967 133.154 75.3591C132.692 75.6885 132.182 75.8532 131.622 75.8532C130.732 75.8532 130.074 75.6061 129.645 75.112C129.217 74.6179 129.003 74.0084 129.003 73.2837C129.003 72.9872 129.052 72.6742 129.151 72.3448L141.455 42.7952C141.719 42.1363 142.114 41.6257 142.641 41.2633C143.201 40.901 143.794 40.7527 144.42 40.8186C145.013 40.8186 145.557 40.9998 146.051 41.3622C146.578 41.6916 146.957 42.1693 147.187 42.7952L159.343 71.7518C159.508 72.1801 159.59 72.5754 159.59 72.9378C159.59 73.8272 159.294 74.5355 158.701 75.0626C158.141 75.5897 157.515 75.8532 156.823 75.8532C156.23 75.8532 155.686 75.672 155.192 75.3097C154.731 74.9473 154.369 74.4531 154.105 73.8272L143.481 49.0708L144.914 48.7743ZM135.773 67.8481L138.49 62.1655H151.832L152.771 67.8481H135.773Z" fill="white"/>
<path d="M166.821 72.5919C166.821 73.4484 166.525 74.1731 165.932 74.7661C165.372 75.3261 164.664 75.6061 163.807 75.6061C162.984 75.6061 162.292 75.3261 161.732 74.7661C161.172 74.1731 160.892 73.4484 160.892 72.5919V42.054C160.892 41.1975 161.172 40.4892 161.732 39.9292C162.325 39.3362 163.049 39.0397 163.906 39.0397C164.762 39.0397 165.454 39.3362 165.981 39.9292C166.541 40.4892 166.821 41.1975 166.821 42.054V72.5919Z" fill="white"/>
<path d="M177.258 72.5919C177.258 73.4484 176.961 74.1731 176.368 74.7661C175.808 75.3261 175.1 75.6061 174.243 75.6061C173.42 75.6061 172.728 75.3261 172.168 74.7661C171.608 74.1731 171.328 73.4484 171.328 72.5919V42.054C171.328 41.1975 171.608 40.4892 172.168 39.9292C172.761 39.3362 173.486 39.0397 174.342 39.0397C175.199 39.0397 175.89 39.3362 176.417 39.9292C176.978 40.4892 177.258 41.1975 177.258 42.054V72.5919Z" fill="white"/>
<path d="M193.24 76.1003C190.44 76.1003 188.002 75.5238 185.926 74.3708C183.884 73.1849 182.303 71.5871 181.183 69.5776C180.096 67.5681 179.552 65.2951 179.552 62.7585C179.552 59.7936 180.145 57.2735 181.331 55.1981C182.55 53.0898 184.131 51.4756 186.075 50.3555C188.018 49.2355 190.077 48.6755 192.251 48.6755C193.931 48.6755 195.513 49.0214 196.995 49.7132C198.51 50.405 199.845 51.3603 200.998 52.5792C202.151 53.7651 203.057 55.1487 203.715 56.73C204.407 58.3112 204.753 59.9913 204.753 61.7702C204.72 62.5608 204.407 63.2032 203.814 63.6973C203.221 64.1915 202.529 64.4386 201.739 64.4386H182.863L181.38 59.4971H199.515L198.428 60.4854V59.1512C198.362 58.1959 198.016 57.3394 197.39 56.5817C196.797 55.824 196.04 55.2311 195.117 54.8028C194.228 54.3416 193.273 54.111 192.251 54.111C191.263 54.111 190.341 54.2428 189.484 54.5063C188.628 54.7699 187.886 55.2146 187.261 55.8405C186.635 56.4664 186.14 57.3065 185.778 58.3606C185.416 59.4148 185.235 60.749 185.235 62.3632C185.235 64.1421 185.597 65.6574 186.322 66.9093C187.079 68.1281 188.035 69.067 189.188 69.7259C190.374 70.3518 191.625 70.6647 192.943 70.6647C194.162 70.6647 195.134 70.5659 195.859 70.3682C196.583 70.1706 197.16 69.94 197.588 69.6764C198.049 69.38 198.461 69.1329 198.823 68.9352C199.416 68.6387 199.976 68.4905 200.504 68.4905C201.228 68.4905 201.821 68.7376 202.282 69.2317C202.777 69.7259 203.024 70.3024 203.024 70.9612C203.024 71.8507 202.562 72.6578 201.64 73.3825C200.784 74.1072 199.581 74.7496 198.033 75.3097C196.485 75.8367 194.887 76.1003 193.24 76.1003Z" fill="white"/>
<path d="M210.016 75.6061C209.16 75.6061 208.451 75.3261 207.891 74.7661C207.331 74.1731 207.051 73.4484 207.051 72.5919V52.1839C207.051 51.3273 207.331 50.6191 207.891 50.0591C208.451 49.4661 209.16 49.1696 210.016 49.1696C210.873 49.1696 211.581 49.4661 212.141 50.0591C212.701 50.6191 212.981 51.3273 212.981 52.1839V56.8288L212.635 53.518C212.998 52.7274 213.459 52.0356 214.019 51.4426C214.612 50.8167 215.271 50.3061 215.995 49.9108C216.72 49.4826 217.494 49.1696 218.318 48.9719C219.141 48.7743 219.965 48.6755 220.789 48.6755C221.777 48.6755 222.6 48.9555 223.259 49.5155C223.951 50.0755 224.297 50.7344 224.297 51.4921C224.297 52.5792 224.017 53.3698 223.457 53.8639C222.897 54.3251 222.287 54.5557 221.629 54.5557C221.003 54.5557 220.426 54.4404 219.899 54.2098C219.405 53.9792 218.828 53.8639 218.17 53.8639C217.577 53.8639 216.967 54.0122 216.341 54.3087C215.748 54.5722 215.188 55.0005 214.661 55.5934C214.167 56.1864 213.755 56.9276 213.426 57.8171C213.129 58.6736 212.981 59.6948 212.981 60.8807V72.5919C212.981 73.4484 212.701 74.1731 212.141 74.7661C211.581 75.3261 210.873 75.6061 210.016 75.6061Z" fill="white"/>
<path d="M229.647 75.6061C228.724 75.6061 227.901 75.3261 227.176 74.7661C226.451 74.1731 226.089 73.4484 226.089 72.5919V44.0305C226.089 43.174 226.369 42.4658 226.929 41.9057C227.522 41.3128 228.246 41.0163 229.103 41.0163H243.334C245.047 41.0163 246.645 41.4775 248.127 42.3999C249.643 43.2893 250.862 44.5411 251.784 46.1553C252.706 47.7366 253.168 49.5649 253.168 51.6403C253.168 52.8921 252.904 54.111 252.377 55.2969C251.883 56.4829 251.191 57.5535 250.302 58.5089C249.445 59.4642 248.473 60.2054 247.386 60.7325L247.436 59.596C248.358 60.0901 249.116 60.6831 249.709 61.3749C250.335 62.0337 250.812 62.7585 251.142 63.5491C251.504 64.3068 251.718 65.1304 251.784 66.0198C251.916 66.8434 251.998 67.5681 252.031 68.194C252.097 68.8199 252.196 69.347 252.328 69.7753C252.492 70.2035 252.789 70.533 253.217 70.7636C253.942 71.1918 254.387 71.8177 254.551 72.6413C254.749 73.4319 254.568 74.1402 254.008 74.7661C253.645 75.1944 253.184 75.4744 252.624 75.6061C252.064 75.705 251.504 75.705 250.944 75.6061C250.384 75.4744 249.923 75.3096 249.56 75.112C249 74.7826 248.44 74.3049 247.88 73.679C247.32 73.0201 246.859 72.1472 246.497 71.06C246.167 69.9729 246.003 68.5729 246.003 66.8598C246.003 66.2998 245.904 65.7892 245.706 65.328C245.508 64.8339 245.228 64.4221 244.866 64.0927C244.504 63.7303 244.042 63.4667 243.482 63.302C242.922 63.1044 242.264 63.0055 241.506 63.0055H231.524L232.265 61.869V72.5919C232.265 73.4484 232.035 74.1731 231.574 74.7661C231.112 75.3261 230.47 75.6061 229.647 75.6061ZM231.574 57.9159H243.087C243.68 57.9159 244.257 57.6524 244.817 57.1253C245.377 56.5652 245.838 55.824 246.2 54.9016C246.563 53.9463 246.744 52.9086 246.744 51.7885C246.744 50.3391 246.348 49.1367 245.558 48.1813C244.8 47.193 243.977 46.6989 243.087 46.6989H231.672L232.265 45.1176V59.1018L231.574 57.9159Z" fill="white"/>
<path d="M262.22 72.5919C262.22 73.4484 261.94 74.1731 261.38 74.7661C260.82 75.3261 260.111 75.6061 259.255 75.6061C258.398 75.6061 257.69 75.3261 257.13 74.7661C256.57 74.1731 256.29 73.4484 256.29 72.5919V52.1839C256.29 51.3273 256.57 50.6191 257.13 50.0591C257.69 49.4661 258.398 49.1696 259.255 49.1696C260.111 49.1696 260.82 49.4661 261.38 50.0591C261.94 50.6191 262.22 51.3273 262.22 52.1839V72.5919ZM259.206 45.9577C258.085 45.9577 257.295 45.7765 256.834 45.4141C256.372 45.0518 256.142 44.4094 256.142 43.487V42.5481C256.142 41.5928 256.389 40.9504 256.883 40.621C257.41 40.2586 258.201 40.0774 259.255 40.0774C260.408 40.0774 261.215 40.2586 261.676 40.621C262.137 40.9833 262.368 41.6257 262.368 42.5481V43.487C262.368 44.4423 262.121 45.1012 261.627 45.4635C261.133 45.793 260.326 45.9577 259.206 45.9577Z" fill="white"/>
<path d="M263.9 71.5048C263.57 71.0436 263.422 70.4506 263.455 69.7259C263.488 69.0011 263.916 68.3752 264.74 67.8481C265.267 67.5187 265.827 67.3869 266.42 67.4528C267.013 67.4858 267.589 67.7822 268.149 68.3423C269.105 69.2976 270.109 70.0388 271.163 70.5659C272.218 71.093 273.535 71.3565 275.117 71.3565C275.611 71.3236 276.154 71.2577 276.747 71.1589C277.34 71.0271 277.851 70.7636 278.279 70.3682C278.74 69.94 278.971 69.2976 278.971 68.4411C278.971 67.7164 278.724 67.1399 278.23 66.7116C277.736 66.2833 277.077 65.921 276.253 65.6245C275.463 65.328 274.573 65.048 273.585 64.7845C272.564 64.488 271.509 64.1585 270.422 63.7962C269.368 63.4338 268.396 62.9726 267.507 62.4126C266.617 61.8196 265.893 61.0455 265.333 60.0901C264.773 59.1348 264.493 57.9324 264.493 56.4829C264.493 54.8357 264.954 53.4357 265.876 52.2827C266.799 51.1297 267.984 50.2402 269.434 49.6143C270.916 48.9884 272.465 48.6755 274.079 48.6755C275.1 48.6755 276.171 48.8072 277.291 49.0708C278.411 49.3014 279.482 49.6967 280.503 50.2567C281.524 50.7838 282.38 51.4921 283.072 52.3815C283.435 52.8757 283.649 53.4686 283.715 54.1604C283.781 54.8522 283.468 55.4781 282.776 56.0382C282.282 56.4335 281.705 56.6147 281.046 56.5817C280.387 56.5158 279.844 56.2852 279.416 55.8899C278.856 55.1652 278.098 54.5887 277.143 54.1604C276.22 53.7322 275.15 53.518 273.931 53.518C273.437 53.518 272.893 53.5839 272.3 53.7157C271.74 53.8145 271.246 54.0616 270.818 54.4569C270.389 54.8193 270.175 55.4122 270.175 56.2358C270.175 56.9935 270.422 57.6029 270.916 58.0641C271.411 58.4924 272.069 58.8548 272.893 59.1512C273.749 59.4148 274.655 59.6783 275.611 59.9419C276.599 60.2054 277.604 60.5184 278.625 60.8807C279.646 61.2431 280.585 61.7208 281.442 62.3137C282.298 62.9067 282.99 63.6809 283.517 64.6362C284.044 65.5586 284.308 66.7445 284.308 68.194C284.308 69.8741 283.813 71.3071 282.825 72.493C281.837 73.679 280.602 74.5849 279.119 75.2108C277.637 75.8038 276.121 76.1003 274.573 76.1003C272.629 76.1003 270.686 75.7708 268.742 75.112C266.799 74.4202 265.184 73.2178 263.9 71.5048Z" fill="white"/>
<path d="M289.846 75.6061C288.99 75.6061 288.282 75.3261 287.722 74.7661C287.162 74.1731 286.882 73.4484 286.882 72.5919V42.054C286.882 41.1975 287.162 40.4892 287.722 39.9292C288.282 39.3362 288.99 39.0397 289.846 39.0397C290.703 39.0397 291.411 39.3362 291.971 39.9292C292.531 40.4892 292.811 41.1975 292.811 42.054V72.5919C292.811 73.4484 292.531 74.1731 291.971 74.7661C291.411 75.3261 290.703 75.6061 289.846 75.6061ZM305.56 49.1696C306.318 49.1696 306.977 49.4826 307.537 50.1085C308.097 50.7344 308.377 51.3438 308.377 51.9368C308.377 52.7274 307.981 53.4686 307.191 54.1604L292.317 67.8481L292.07 61.029L303.386 50.1085C304.012 49.4826 304.736 49.1696 305.56 49.1696ZM306.301 75.5567C305.445 75.5567 304.72 75.2273 304.127 74.5684L294.985 64.8833L299.482 60.7325L308.377 70.4177C309.003 71.0765 309.316 71.8177 309.316 72.6413C309.316 73.4978 308.97 74.2061 308.278 74.7661C307.619 75.2932 306.96 75.5567 306.301 75.5567Z" fill="white"/>
</svg>
