<svg width="279" height="278" viewBox="0 0 279 278" fill="none" xmlns="http://www.w3.org/2000/svg">
<path d="M3.88462 171.538C-2.54379 142.419 -1.36119 114.079 10.1997 86.9196C30.3074 39.681 65.8868 10.4225 116.53 1.97322C193.648 -10.893 262.803 40.5899 275.931 114.72C289.221 189.768 239.458 261.269 164.403 275.872C162.608 276.221 160.778 276.382 158.975 276.691C144.635 279.152 135.964 272.872 133.505 258.386C131.122 244.347 134.038 230.883 138.02 217.608C142.924 201.263 151.641 186.934 162.294 173.72C163.217 172.575 164.1 171.396 165.149 170.043C161.926 166.344 156.812 166.388 153.43 163.463C156.245 160.631 188.278 147.472 194.141 146.941C191.272 161.319 188.457 175.43 185.538 190.059C180.473 187.203 179.961 181.759 175.782 178.621C159 199.046 147.177 221.271 146.449 249.577C173.568 236.625 196.465 220.175 212.316 195.273C236.157 157.818 236.308 117.122 228.418 74.0792C225.409 77.9631 223.295 81.0293 220.843 83.7955C212.755 92.9184 202.47 99.0953 191.982 104.982C177.617 113.045 162.394 119.582 148.983 129.345C126.822 145.479 114.432 167.029 112.04 194.443C110.166 215.916 115.359 236.008 122.964 255.738C124.638 260.079 126.393 264.422 127.608 268.9C129.333 275.262 126.909 277.823 120.489 276.88C84.835 271.643 55.4681 255.086 32.3248 227.553C18.6068 211.232 9.30858 192.582 3.88462 171.538ZM52.6094 116.063C47.0544 123.796 44.0142 132.443 45.51 141.885C50.2702 171.933 63.5017 197.73 85.484 218.891C89.7319 222.98 94.1044 226.977 100.568 229.871C90.7563 173.151 110.627 131.47 161.869 105.398C157.948 101.481 153.716 101.185 149.966 101.391C137.666 102.066 129.137 108.947 123.313 120.482C114.819 107.39 103.887 99.9495 89.1742 99.1478C74.3756 98.3414 62.1291 103.505 52.6094 116.063ZM83.1132 45.9277C73.0077 47.8045 65.3523 55.1478 64.2725 64.0002C62.9811 74.5871 68.5298 84.5757 77.795 88.3433C86.7252 91.9746 97.3046 89.2659 103.455 81.4129C109.066 74.2484 110.176 66.3826 105.947 58.081C101.353 49.0621 93.7796 45.3261 83.1132 45.9277ZM142.694 93.7278C149.346 97.0746 156.026 96.2218 161.048 91.3846C165.556 87.0437 167.008 80.0914 164.598 74.3925C161.896 68.0033 156.139 64.4497 149.167 64.8674C142.9 65.2428 137.614 69.2188 135.686 75.0065C133.354 82.0073 135.55 88.3618 142.694 93.7278Z" fill="#13624F"/>
</svg>
